<svg xmlns:xlink="http://www.w3.org/1999/xlink" width="76" xmlns="http://www.w3.org/2000/svg" height="76" id="screenshot-0c285c41-441f-11ed-a365-61b9b33be8fa" viewBox="0 0 76 76" style="-webkit-print-color-adjust: exact;" fill="none" version="1.1"><g id="shape-0c285c41-441f-11ed-a365-61b9b33be8fa"><defs><clipPath id="frame-clip-0c285c41-441f-11ed-a365-61b9b33be8fa-2782c570-441f-11ed-85a2-b7ddb4bfbac8" class="frame-clip"><rect rx="0" ry="0" x="0" y="0" width="75.99999999976717" height="76" transform="matrix(1,0,0,1,0.000001,-0.000001)"/></clipPath></defs><g clip-path="url(#frame-clip-0c285c41-441f-11ed-a365-61b9b33be8fa-2782c570-441f-11ed-85a2-b7ddb4bfbac8)"><clipPath id="frame-clip-0c285c41-441f-11ed-a365-61b9b33be8fa-2782c570-441f-11ed-85a2-b7ddb4bfbac8" class="frame-clip"><rect rx="0" ry="0" x="0" y="0" width="75.99999999976717" height="76" transform="matrix(1,0,0,1,0.000001,-0.000001)"/></clipPath><g id="fills-0c285c41-441f-11ed-a365-61b9b33be8fa"><rect rx="0" ry="0" x="0" y="0" transform="matrix(1,0,0,1,0.000001,-0.000001)" width="75.99999999976717" height="76" class="frame-background"/></g><g class="frame-children"><g id="shape-0e890890-441f-11ed-a365-61b9b33be8fa"><g id="fills-0e890890-441f-11ed-a365-61b9b33be8fa"><path rx="0" ry="0" d="M33.164,8.414C33.164,8.414,11.616,14.508,9.801,34.495C8.432,49.574,37.358,44.699,48.483,43.58C51.261,43.165,54.225,43.086,55.015,41.092C58.015,37.092,53.246,15.586,36.246,17.586C19.246,19.586,17.246,40.586,17.246,42.586C17.246,44.586,18.246,67.586,36.246,67.586C54.246,67.586,66.246,50.586,66.246,50.586"/></g><g id="strokes-0e890890-441f-11ed-a365-61b9b33be8fa"><g class="stroke-shape"><path rx="0" ry="0" d="M33.164,8.414C33.164,8.414,11.616,14.508,9.801,34.495C8.432,49.574,37.358,44.699,48.483,43.58C51.261,43.165,54.225,43.086,55.015,41.092C58.015,37.092,53.246,15.586,36.246,17.586C19.246,19.586,17.246,40.586,17.246,42.586C17.246,44.586,18.246,67.586,36.246,67.586C54.246,67.586,66.246,50.586,66.246,50.586" style="fill: none; stroke-width: 8; stroke: rgb(57, 159, 182); stroke-opacity: 1; stroke-linecap: round;"/></g></g></g></g></g></g></svg>